<svg width="504" height="500" viewBox="0 0 504 500" fill="none" xmlns="http://www.w3.org/2000/svg">
<g clip-path="url(#clip0_1_62)">
<path d="M482.169 258.822V494.335C482.167 495.837 481.569 497.277 480.507 498.339C479.444 499.401 478.003 499.998 476.5 500H26.2689C25.514 500 24.7668 499.85 24.0713 499.556C23.3759 499.263 22.7464 498.833 22.22 498.292V258.822H482.169Z" fill="#E6E6E6"/>
<path d="M333.576 19.2553C333.123 18.9802 332.669 18.7131 332.216 18.4541H284.893C284.553 18.9883 284.229 19.5305 283.913 20.0728H334.937C334.483 19.7975 334.03 19.5305 333.576 19.2553ZM20.6005 179.072V191.131C20.8029 191.147 21.0135 191.147 21.2159 191.155L20.811 214.334L20.6005 214.221V216.503L20.7706 216.592L20.6005 226.312V259.818H22.22V173.609C21.7666 175.357 21.2268 177.178 20.6005 179.072V179.072ZM333.576 19.2553C333.123 18.9802 332.669 18.7131 332.216 18.4541H284.893C284.553 18.9883 284.229 19.5305 283.913 20.0728H334.937C334.483 19.7975 334.03 19.5305 333.576 19.2553ZM476.5 18.4541H26.2689C24.766 18.4558 23.3253 19.0532 22.2626 20.1153C21.1999 21.1773 20.6022 22.6174 20.6005 24.1194V494.335C20.6037 495.836 21.202 497.275 22.2643 498.337C23.3266 499.399 24.7665 499.997 26.2689 500H476.5C478.003 499.998 479.444 499.401 480.507 498.339C481.569 497.277 482.167 495.837 482.169 494.335V24.1194C482.167 22.6173 481.569 21.1773 480.507 20.1152C479.444 19.0531 478.003 18.4557 476.5 18.4541ZM480.549 494.335C480.549 495.408 480.122 496.437 479.363 497.196C478.604 497.955 477.574 498.381 476.5 498.381H26.2689C25.1952 498.381 24.1656 497.955 23.4064 497.196C22.6471 496.437 22.2204 495.408 22.22 494.335V24.1194C22.2218 23.0467 22.649 22.0184 23.4079 21.2599C24.1668 20.5014 25.1956 20.0745 26.2689 20.0728H476.5C477.573 20.0745 478.602 20.5014 479.361 21.2599C480.12 22.0184 480.547 23.0467 480.549 24.1194V494.335Z" fill="#3F3D56"/>
<path d="M382.423 27.2903C382.431 34.0944 379.862 40.6495 375.232 45.6376C374.876 46.018 374.503 46.3902 374.131 46.7463C360.17 36.0009 345.526 26.174 330.29 17.3275C330.476 16.85 330.678 16.3725 330.897 15.9112C333.5 10.2892 337.965 5.73793 343.537 3.02684H343.546C356.015 6.75769 368.244 11.2498 380.163 16.4777C381.655 19.8874 382.424 23.5689 382.423 27.2903Z" fill="#FF6584"/>
<path d="M404.339 82.2507L404.314 82.5331C386.542 81.3096 368.771 80.084 351.003 78.8563C338.165 77.9717 324.881 76.9678 313.537 70.8942C309.23 68.5915 305.037 65.5171 300.153 65.3037C294.094 65.0339 288.808 69.2691 284.653 73.6863C260.087 99.8378 252.975 139.824 225.415 162.795C242.797 119.954 263.549 78.5579 287.478 38.9954C291.897 31.6857 297.139 23.8804 305.344 21.4962C313.173 19.2186 321.183 22.544 328.39 26.8106C329.935 27.7266 331.441 28.6866 332.898 29.6403C344.003 36.906 354.927 44.4498 365.668 52.2719C378.858 61.8654 391.748 71.8583 404.339 82.2507Z" fill="#E6E6E6"/>
<path d="M461.819 137.716C442.823 110.917 420.752 86.4332 396.059 64.7641C388.959 58.5274 381.649 52.5208 374.13 46.7442C360.166 36.0021 345.521 26.1747 330.286 17.3238C325.289 14.425 320.233 11.6413 315.119 8.97259C311.145 6.90833 306.914 5.01975 302.331 5.31464C299.125 5.58853 296.062 6.76554 293.498 8.70908C287.867 12.8188 284.138 19.2375 281.068 25.3549C278.381 30.7195 275.876 36.1908 273.321 41.6306C272.235 43.9459 271.149 46.2548 270.025 48.5512C266.108 56.595 262.098 64.5948 257.997 72.5506C252.711 82.803 247.272 92.9779 241.681 103.075C229.935 124.302 217.54 145.145 204.497 165.606C185.325 195.679 164.813 224.84 142.962 253.089C140.281 256.546 139.176 257.349 136.458 260.781C135.83 261.584 134.713 260.455 135.334 259.658C158.004 231.022 177.741 203.967 197.642 173.336C212.646 150.24 226.825 126.631 240.18 102.511C244.468 94.7744 248.666 86.99 252.774 79.1575C259.422 66.477 265.84 53.6774 272.028 40.7585C273.66 37.3578 275.276 33.9445 276.874 30.5187C281.953 19.6453 289.348 3.47626 303.63 3.69586C307.83 3.75862 311.729 5.45896 315.408 7.34126C319.155 9.2675 322.834 11.3129 326.507 13.3897C327.976 14.2179 329.439 15.0587 330.895 15.912C336.664 19.2625 342.348 22.7531 347.946 26.3839C357.287 32.4387 366.381 38.8552 375.229 45.6336C379.429 48.8524 383.566 52.1443 387.64 55.5095C413.205 76.6486 436.191 100.722 456.125 127.232C458.529 130.425 460.884 133.654 463.188 136.919C463.778 137.754 462.403 138.544 461.819 137.716Z" fill="#E6E6E6"/>
<path d="M419.372 37.0426C411.866 41.3158 405.728 47.6285 399.962 54.006C399.128 54.9286 398.299 55.8539 397.476 56.7819C396.788 57.5427 395.679 56.4178 396.351 55.6489C402.805 48.4378 409.437 41.0649 417.85 36.1038C418.36 36.4113 418.87 36.727 419.372 37.0426Z" fill="#E6E6E6"/>
<path d="M215.51 132.222L194.229 124.443L183.663 120.58C180.25 119.207 176.768 118.008 173.232 116.99C170.141 116.107 166.858 116.149 163.791 117.11C161.055 118.122 158.55 119.674 156.426 121.673C154.257 123.67 152.238 125.824 150.386 128.119C148.086 130.882 145.819 133.674 143.543 136.457C134.147 147.941 124.813 159.476 115.54 171.06C106.267 182.644 97.0563 194.277 87.9076 205.959C78.7365 217.67 69.6284 229.43 60.5835 241.239C59.4754 242.685 58.3684 244.133 57.2623 245.581C56.6511 246.381 55.2732 245.592 55.8929 244.781C65.0046 232.853 74.1798 220.974 83.4185 209.145C92.68 197.286 102.005 185.478 111.395 173.721C120.784 161.963 130.237 150.257 139.753 138.602C142.124 135.698 144.498 132.797 146.877 129.9C148.883 127.456 150.867 124.986 153.068 122.711C157.107 118.536 162.154 114.845 168.195 114.745C171.747 114.687 175.185 115.813 178.485 117.006C182.042 118.292 185.592 119.603 189.145 120.902L210.574 128.735L215.931 130.694C216.882 131.041 216.471 132.574 215.51 132.222V132.222Z" fill="#E6E6E6"/>
<path d="M440.013 50.882C427.867 53.488 415.834 56.5553 403.914 60.084C411.574 55.6003 417.566 48.5673 425.462 44.5126C426.532 43.9621 427.635 43.4782 428.766 43.0639C432.572 45.5809 436.321 48.1869 440.013 50.882Z" fill="#E6E6E6"/>
<path d="M157.228 132.3C159.323 129.751 161.587 127.083 164.721 126.048L167.646 126.163C145.378 165.49 115.303 199.854 79.2668 227.145C105.254 195.53 131.241 163.915 157.228 132.3Z" fill="#E6E6E6"/>
<path d="M435.652 172.42C435.652 173.127 435.675 173.828 435.721 174.524C435.978 178.534 436.992 182.46 438.709 186.093C438.722 186.125 438.738 186.153 438.751 186.182C438.831 186.351 438.913 186.519 438.997 186.685C439.508 187.713 440.074 188.712 440.694 189.678C443.525 194.112 447.405 197.781 451.992 200.361C456.578 202.941 461.73 204.352 466.991 204.469L466.674 222.7L462.538 220.523L461.799 221.927L466.643 224.476L466.051 258.336L466.044 258.788L469.243 259.5L469.236 259.045L468.229 204.471C472.464 204.41 476.645 203.509 480.529 201.821C484.413 200.132 487.922 197.688 490.853 194.633C491.055 194.424 491.255 194.209 491.45 193.997L491.472 193.972C493.915 191.31 495.89 188.255 497.315 184.936C497.284 184.972 497.25 185.005 497.219 185.04C510.436 151.844 502.747 136.455 482.008 143.723C481.897 143.668 481.784 143.614 481.673 143.559C474.419 140.067 466.117 139.426 458.413 141.764C450.709 144.101 444.165 149.246 440.078 156.179C439.882 156.507 439.694 156.842 439.512 157.179C436.973 161.858 435.646 167.097 435.652 172.42Z" fill="#3F3D56"/>
<path d="M166.886 13.5804L166.854 13.9689C155.946 13.2162 145.042 12.4636 134.139 11.7109C141.112 8.96734 148.165 6.46649 155.363 4.20849C159.226 7.30009 163.067 10.4241 166.886 13.5804Z" fill="#E6E6E6"/>
<path d="M246.794 88.6773C246.701 88.8483 246.566 88.9929 246.401 89.0978C246.237 89.2028 246.049 89.2645 245.854 89.2774C245.66 89.2904 245.465 89.254 245.288 89.1717C245.111 89.0894 244.958 88.9639 244.843 88.8067C222.193 56.8444 196.305 27.3017 167.591 0.647436C168.409 0.420826 169.235 0.202307 170.053 -2.28882e-05C194.548 22.8539 216.989 47.8119 237.118 74.587C240.381 78.9169 243.574 83.2953 246.697 87.7223C246.805 87.8547 246.871 88.0156 246.889 88.1853C246.906 88.3549 246.873 88.5259 246.794 88.6773Z" fill="#E6E6E6"/>
<path d="M437.834 378.302C437.834 379.897 435.98 381.184 433.688 381.184C431.388 381.184 429.534 379.897 429.534 378.302C429.534 376.708 431.388 375.413 433.688 375.413C435.98 375.413 437.834 376.708 437.834 378.302Z" fill="#E6E6E6"/>
<path d="M328.646 407.879C328.638 407.965 328.626 408.046 328.615 408.132C320.633 411.633 309.714 413.792 297.661 413.792C284.497 413.792 272.674 411.218 264.567 407.13C259.673 404.665 256.135 401.649 254.472 398.318C253.777 396.973 253.41 395.483 253.4 393.97C253.399 393.586 253.424 393.202 253.474 392.821C253.566 392.107 253.739 391.406 253.991 390.732C254.731 388.854 255.877 387.163 257.347 385.778C257.677 385.456 258.026 385.134 258.391 384.82C261.754 382.113 265.565 380.018 269.652 378.628C263.507 381.695 259.467 385.631 258.555 389.967C258.535 390.045 258.524 390.123 258.512 390.196C258.408 390.74 258.356 391.293 258.357 391.846C258.357 391.901 258.357 391.959 258.36 392.013C258.36 392.013 258.364 392.017 258.36 392.017C258.423 395.48 260.47 398.729 264.016 401.551C271.602 407.588 286.047 411.668 302.621 411.668C311.44 411.755 320.219 410.477 328.646 407.879Z" fill="#CCCCCC"/>
<path d="M242.81 357.701C242.802 357.787 242.791 357.868 242.779 357.954C234.797 361.455 223.878 363.614 211.826 363.614C198.662 363.614 186.838 361.04 178.732 356.952C173.838 354.487 170.299 351.471 168.637 348.14C167.942 346.795 167.574 345.305 167.565 343.792C167.564 343.408 167.589 343.024 167.639 342.643C167.731 341.929 167.904 341.228 168.155 340.554C168.896 338.676 170.042 336.985 171.511 335.601C171.841 335.278 172.191 334.956 172.556 334.642C175.918 331.936 179.73 329.84 183.816 328.45C177.672 331.517 173.632 335.453 172.719 339.789C172.7 339.867 172.688 339.945 172.676 340.018C172.572 340.562 172.52 341.115 172.521 341.668C172.521 341.723 172.521 341.781 172.525 341.835C172.525 341.835 172.529 341.839 172.525 341.839C172.587 345.302 174.634 348.551 178.18 351.374C185.766 357.41 200.212 361.49 216.786 361.49C225.604 361.577 234.383 360.299 242.81 357.701Z" fill="#CCCCCC"/>
<path d="M238.297 370.606C238.288 370.71 238.274 370.81 238.259 370.914C228.523 375.186 215.204 377.818 200.501 377.818C184.444 377.818 170.021 374.679 160.133 369.692C154.163 366.685 149.846 363.006 147.818 358.943C146.971 357.303 146.522 355.485 146.511 353.639C146.51 353.17 146.54 352.702 146.601 352.237C146.713 351.367 146.924 350.512 147.231 349.69C148.134 347.399 149.532 345.336 151.325 343.647C151.727 343.254 152.154 342.861 152.599 342.477C156.001 339.56 160.692 336.994 166.335 334.924C158.839 338.665 153.912 343.467 152.798 348.757C152.775 348.851 152.76 348.946 152.746 349.036C152.619 349.699 152.556 350.373 152.557 351.049C152.557 351.115 152.557 351.186 152.561 351.252C152.561 351.252 152.566 351.257 152.561 351.257C152.637 355.481 155.134 359.445 159.46 362.887C168.714 370.251 186.335 375.228 206.552 375.228C218.416 375.228 229.385 373.509 238.297 370.606Z" fill="#CCCCCC"/>
<path d="M337.205 423.009C337.194 423.134 337.177 423.253 337.16 423.378C325.472 428.506 309.484 431.666 291.836 431.666C272.56 431.666 255.247 427.898 243.377 421.912C236.211 418.302 231.03 413.885 228.595 409.008C227.578 407.039 227.04 404.858 227.026 402.642C227.025 402.079 227.061 401.517 227.134 400.959C227.269 399.914 227.522 398.888 227.89 397.901C228.975 395.151 230.652 392.675 232.804 390.648C233.288 390.176 233.8 389.704 234.334 389.243C238.418 385.742 244.049 382.661 250.823 380.177C241.825 384.667 235.91 390.431 234.573 396.781C234.545 396.895 234.528 397.008 234.511 397.116C234.358 397.913 234.282 398.722 234.283 399.532C234.283 399.612 234.283 399.697 234.289 399.777C234.289 399.777 234.294 399.782 234.289 399.782C234.38 404.853 237.377 409.611 242.57 413.743C253.678 422.583 274.83 428.557 299.099 428.557C313.34 428.557 326.507 426.493 337.205 423.009Z" fill="#CCCCCC"/>
<path d="M141.589 403.023C141.581 403.109 141.57 403.19 141.558 403.276C133.576 406.777 122.657 408.936 110.605 408.936C97.4409 408.936 85.6172 406.362 77.5108 402.274C72.6167 399.809 69.0781 396.793 67.4157 393.462C66.7206 392.117 66.3532 390.627 66.3436 389.114C66.3428 388.73 66.3675 388.346 66.4174 387.965C66.5095 387.251 66.6828 386.55 66.934 385.876C67.6746 383.998 68.8204 382.307 70.29 380.923C70.6202 380.6 70.9698 380.278 71.3349 379.964C74.6972 377.258 78.5084 375.162 82.5953 373.772C76.4504 376.839 72.4108 380.775 71.498 385.111C71.4786 385.189 71.4669 385.267 71.4553 385.34C71.3511 385.884 71.2991 386.437 71.2999 386.99C71.2999 387.045 71.2999 387.103 71.3038 387.157C71.3038 387.157 71.3077 387.161 71.3038 387.161C71.366 390.624 73.413 393.873 76.9593 396.696C84.5452 402.732 98.9907 406.812 115.565 406.812C124.383 406.899 133.162 405.621 141.589 403.023Z" fill="#CCCCCC"/>
<path d="M150.149 418.153C150.137 418.278 150.12 418.397 150.103 418.522C138.415 423.65 122.428 426.81 104.779 426.81C85.5039 426.81 68.1909 423.042 56.321 417.056C49.1546 413.446 43.9733 409.03 41.539 404.152C40.5212 402.183 39.9833 400.002 39.9692 397.786C39.968 397.223 40.0041 396.661 40.0773 396.103C40.2121 395.058 40.4659 394.032 40.8337 393.045C41.918 390.295 43.5959 387.819 45.7478 385.792C46.2312 385.32 46.7431 384.848 47.2777 384.388C51.3614 380.886 56.9921 377.805 63.766 375.321C54.7683 379.812 48.8532 385.576 47.5166 391.925C47.4882 392.039 47.4711 392.153 47.454 392.261C47.3015 393.057 47.2253 393.866 47.2265 394.676C47.2265 394.756 47.2265 394.841 47.2322 394.921C47.2322 394.921 47.2378 394.926 47.2322 394.926C47.3232 399.997 50.3205 404.755 55.5133 408.887C66.6211 417.727 87.7732 423.701 112.042 423.701C126.284 423.701 139.45 421.638 150.149 418.153Z" fill="#CCCCCC"/>
<path d="M412.52 338.128C411.469 338.649 410.39 339.113 409.289 339.52C408.763 339.722 408.229 339.908 407.67 340.086C401.722 341.931 395.523 342.838 389.296 342.773C372.073 342.773 358.112 336.525 358.112 328.812C358.112 324.45 362.574 320.565 369.562 318C364.615 320.476 361.602 323.738 361.602 327.315C361.602 335.028 375.571 341.276 392.786 341.276C397.8 341.339 402.802 340.762 407.67 339.56C408.213 339.423 408.755 339.277 409.289 339.131C410.375 338.824 411.452 338.492 412.52 338.128Z" fill="#CCCCCC"/>
<path d="M415.444 351.287C413.506 352.814 411.448 354.181 409.289 355.374C408.763 355.666 408.221 355.957 407.67 356.248C401.569 359.337 395.086 361.603 388.389 362.99C367.424 367.482 348.808 363.508 346.792 354.128C345.658 348.819 350.071 342.919 357.91 337.982C352.533 342.28 349.723 347.038 350.654 351.393C352.662 360.781 371.287 364.754 392.252 360.263C397.56 359.199 402.732 357.543 407.67 355.326C408.213 355.091 408.755 354.848 409.289 354.589C411.387 353.586 413.444 352.485 415.444 351.287Z" fill="#CCCCCC"/>
<path d="M191.924 414.347C194.217 414.347 196.077 413.055 196.077 411.46C196.077 409.865 194.217 408.573 191.924 408.573C189.63 408.573 187.771 409.865 187.771 411.46C187.771 413.055 189.63 414.347 191.924 414.347Z" fill="white"/>
<path d="M218.286 420.844C220.579 420.844 222.438 419.551 222.438 417.957C222.438 416.362 220.579 415.069 218.286 415.069C215.992 415.069 214.133 416.362 214.133 417.957C214.133 419.551 215.992 420.844 218.286 420.844Z" fill="#3F3D56"/>
<path d="M181.451 434.92C183.745 434.92 185.604 433.627 185.604 432.032C185.604 430.438 183.745 429.145 181.451 429.145C179.158 429.145 177.298 430.438 177.298 432.032C177.298 433.627 179.158 434.92 181.451 434.92Z" fill="#FF6584"/>
<path d="M284.237 324.513C286.531 324.513 288.39 323.22 288.39 321.625C288.39 320.031 286.531 318.738 284.237 318.738C281.944 318.738 280.084 320.031 280.084 321.625C280.084 323.22 281.944 324.513 284.237 324.513Z" fill="white"/>
<path d="M310.599 331.009C312.893 331.009 314.752 329.717 314.752 328.122C314.752 326.527 312.893 325.235 310.599 325.235C308.306 325.235 306.446 326.527 306.446 328.122C306.446 329.717 308.306 331.009 310.599 331.009Z" fill="#3F3D56"/>
<path d="M273.765 345.085C276.058 345.085 277.918 343.793 277.918 342.198C277.918 340.603 276.058 339.31 273.765 339.31C271.471 339.31 269.612 340.603 269.612 342.198C269.612 343.793 271.471 345.085 273.765 345.085Z" fill="#FF6584"/>
<path d="M411.476 371.804C411.476 372.904 410.593 373.859 409.289 374.345C408.771 374.542 408.224 374.654 407.67 374.677C407.554 374.69 407.438 374.696 407.322 374.693C405.03 374.693 403.168 373.398 403.168 371.804C403.168 370.209 405.03 368.914 407.322 368.914C407.438 368.911 407.554 368.917 407.67 368.93C408.224 368.953 408.771 369.065 409.289 369.262C410.593 369.748 411.476 370.703 411.476 371.804Z" fill="white"/>
<path d="M437.834 378.302C437.834 379.897 435.98 381.184 433.688 381.184C431.388 381.184 429.534 379.897 429.534 378.302C429.534 376.708 431.388 375.413 433.688 375.413C435.98 375.413 437.834 376.708 437.834 378.302Z" fill="#3F3D56"/>
<path d="M396.85 395.263C399.143 395.263 401.003 393.97 401.003 392.376C401.003 390.781 399.143 389.488 396.85 389.488C394.556 389.488 392.697 390.781 392.697 392.376C392.697 393.97 394.556 395.263 396.85 395.263Z" fill="#FF6584"/>
<path d="M80.9854 328.559C83.279 328.559 85.1383 327.267 85.1383 325.672C85.1383 324.077 83.279 322.785 80.9854 322.785C78.6918 322.785 76.8325 324.077 76.8325 325.672C76.8325 327.267 78.6918 328.559 80.9854 328.559Z" fill="white"/>
<path d="M107.347 335.056C109.641 335.056 111.5 333.763 111.5 332.169C111.5 330.574 109.641 329.281 107.347 329.281C105.054 329.281 103.194 330.574 103.194 332.169C103.194 333.763 105.054 335.056 107.347 335.056Z" fill="#3F3D56"/>
<path d="M70.5129 349.132C72.8065 349.132 74.6658 347.839 74.6658 346.244C74.6658 344.65 72.8065 343.357 70.5129 343.357C68.2193 343.357 66.36 344.65 66.36 346.244C66.36 347.839 68.2193 349.132 70.5129 349.132Z" fill="#FF6584"/>
<path d="M162.219 387.651C152.913 387.078 143.601 386.617 134.286 386.202C128.01 385.923 121.727 385.694 115.458 385.27C113.258 385.122 111.057 384.945 108.869 384.667C108.295 384.583 107.719 384.489 107.148 384.373C107.232 384.269 107.315 384.164 107.4 384.061C107.85 383.516 108.313 382.983 108.782 382.455C111.265 379.663 113.895 377 116.486 374.309C120.14 370.516 123.766 366.695 127.304 362.793C131.903 357.719 136.356 352.517 140.66 347.186C141.879 345.675 143.085 344.153 144.278 342.622C145.113 341.551 145.943 340.476 146.77 339.398C147.081 338.991 147.392 338.584 147.702 338.176C147.846 337.986 147.99 337.796 148.134 337.606C148.276 337.419 148.894 336.61 148.445 337.188C148.71 336.845 148.975 336.502 149.24 336.159C149.419 335.926 149.598 335.692 149.775 335.458C150.182 334.918 150.582 334.374 150.976 333.824C151.685 332.833 152.371 331.825 153.032 330.8C154.285 328.861 155.437 326.859 156.485 324.803C160.392 317.11 162.949 308.606 162.896 299.921C162.929 292.631 160.915 285.478 157.083 279.275C153.369 273.403 147.995 268.764 141.641 265.947C137.944 264.351 134.035 263.297 130.036 262.82C126.143 262.394 122.211 262.484 118.342 263.088C109.461 264.319 100.944 268.11 93.4947 273.007C91.1201 274.567 88.8504 276.273 86.6194 278.031C86.1519 278.498 85.7811 279.052 85.5282 279.663C85.2753 280.273 85.1452 280.927 85.1455 281.587C85.155 282.92 85.6838 284.195 86.6194 285.144C87.5651 286.084 88.8439 286.614 90.178 286.617C91.4963 286.541 92.7502 286.022 93.7365 285.144C93.8398 285.063 93.9443 284.981 94.0484 284.899C94.3625 284.66 94.6783 284.424 94.9957 284.189C95.6654 283.695 96.3424 283.211 97.0268 282.737C98.3825 281.798 99.7676 280.904 101.182 280.055C103.62 278.593 106.149 277.289 108.754 276.151C112.521 274.599 116.459 273.498 120.486 272.873C123.469 272.521 126.483 272.503 129.47 272.82C132.105 273.213 134.685 273.912 137.158 274.902C138.288 275.414 139.386 275.992 140.448 276.633C141.101 277.03 141.738 277.45 142.359 277.895C142.446 277.957 142.64 278.102 142.806 278.226C142.963 278.354 143.119 278.484 143.274 278.615C144.407 279.574 145.466 280.615 146.445 281.731C146.675 281.994 146.901 282.26 147.122 282.531C147.155 282.572 147.188 282.613 147.22 282.654C147.647 283.231 148.053 283.822 148.439 284.427C149.225 285.67 149.922 286.967 150.525 288.308C151.509 290.774 152.203 293.346 152.596 295.972C152.911 298.948 152.894 301.951 152.545 304.923C151.928 308.902 150.839 312.794 149.302 316.516C147.512 320.565 145.327 324.427 142.779 328.048C142.423 328.558 142.061 329.063 141.693 329.564C141.521 329.798 141.347 330.031 141.172 330.264C141.104 330.354 140.878 330.65 140.755 330.812C140.482 331.16 140.215 331.507 139.949 331.858C139.805 332.05 139.66 332.241 139.516 332.433C139.181 332.876 138.845 333.318 138.508 333.759C138.223 334.133 137.937 334.506 137.65 334.878L137.64 334.892C137.527 335.037 137.415 335.182 137.302 335.327C136.697 336.105 136.089 336.879 135.478 337.652C131.096 343.186 126.549 348.584 121.837 353.847C118.173 357.942 114.412 361.948 110.605 365.911C107.87 368.759 105.092 371.571 102.432 374.49C100.421 376.505 98.6657 378.76 97.2053 381.203C95.7886 383.862 95.2264 387.063 96.9772 389.736C98.6458 392.283 101.56 393.454 104.434 394.052C108.177 394.746 111.964 395.18 115.768 395.35C121.234 395.712 126.711 395.927 132.184 396.169C139.942 396.511 147.699 396.873 155.452 397.311C157.708 397.438 159.964 397.572 162.219 397.711C163.551 397.703 164.827 397.171 165.769 396.229C166.711 395.288 167.244 394.013 167.252 392.681C167.222 391.356 166.682 390.094 165.745 389.157C164.807 388.221 163.545 387.681 162.219 387.651Z" fill="#1E6091"/>
<path d="M253.927 288.597C253.789 282.265 253.272 275.946 252.381 269.675C251.596 263.914 250.46 258.206 248.98 252.583C247.505 247.017 245.604 241.573 243.295 236.299C241.519 232.086 239.249 228.098 236.534 224.418C233.837 220.873 230.744 217.539 226.768 215.402C225.059 214.456 223.216 213.773 221.302 213.379C221.043 213.331 220.784 213.29 220.516 213.266C220.338 213.241 220.152 213.217 219.966 213.193C214.32 212.636 208.622 213.426 203.341 215.499C198.089 217.63 193.39 220.926 189.599 225.138C185.878 229.358 182.869 234.155 180.692 239.342C178.272 245.004 176.52 250.927 175.469 256.993C174.344 263.465 173.816 270.027 173.89 276.595C173.987 283.187 174.651 289.759 175.874 296.237C175.882 296.27 175.882 296.294 175.89 296.326C176.974 302.211 178.645 307.973 180.878 313.524C183 319.009 185.846 324.186 189.34 328.918C192.746 333.568 197.036 337.5 201.965 340.491C204.373 341.893 206.943 342.999 209.617 343.785C211.958 344.551 214.35 345.154 216.775 345.59C219.313 346.02 221.897 346.115 224.46 345.873C227.202 345.563 229.882 344.845 232.412 343.744C236.76 341.859 240.218 338.565 243.052 334.842C245.894 330.928 248.09 326.583 249.555 321.974C251.265 316.685 252.437 311.238 253.053 305.714C253.441 302.566 253.703 299.407 253.838 296.237C253.952 293.696 253.981 291.149 253.927 288.597ZM243.627 299.038C243.473 301.328 243.255 303.618 242.955 305.909C242.338 310.441 241.303 314.906 239.862 319.246C239.538 320.201 239.181 321.14 238.801 322.071C237.731 324.585 236.387 326.974 234.792 329.193L234.776 329.217C234.614 329.42 234.452 329.614 234.29 329.808C233.869 330.302 233.432 330.779 232.978 331.241C232.517 331.702 232.039 332.147 231.545 332.568C231.424 332.673 231.294 332.778 231.165 332.883C231.1 332.932 231.035 332.972 230.978 333.021C228.964 334.534 226.593 335.504 224.095 335.837C222.369 336.006 220.629 335.993 218.905 335.797C217.373 335.546 215.86 335.189 214.378 334.729C212.848 334.259 211.309 333.806 209.827 333.223C208.2 332.494 206.64 331.624 205.163 330.625C204.766 330.358 204.377 330.075 203.989 329.792L203.6 329.476C202.79 328.804 202.013 328.1 201.26 327.364C200.507 326.627 199.786 325.867 199.09 325.065C198.725 324.653 198.361 324.224 198.013 323.795C197.907 323.657 197.794 323.52 197.689 323.39C196.344 321.594 195.114 319.715 194.004 317.765C192.788 315.619 191.688 313.409 190.709 311.145C188.747 306.32 187.213 301.331 186.125 296.237C185.939 295.404 185.769 294.57 185.615 293.728C185.307 292.134 185.056 290.532 184.83 288.929C183.925 281.923 183.718 274.845 184.214 267.798C184.344 265.953 184.538 264.107 184.773 262.27C185.468 257.214 186.645 252.235 188.287 247.403C188.692 246.205 189.146 245.024 189.632 243.858C191.122 240.379 193.002 237.08 195.235 234.025C195.259 233.993 195.3 233.936 195.348 233.879L195.373 233.839C195.689 233.442 196.013 233.062 196.344 232.681C196.944 231.985 197.559 231.322 198.207 230.674C198.879 230.011 199.567 229.379 200.288 228.772C200.45 228.635 200.766 228.392 200.993 228.222C201.187 228.076 201.381 227.923 201.584 227.785C204.902 225.372 208.777 223.836 212.848 223.318C214.972 223.088 217.114 223.053 219.245 223.212C219.788 223.337 220.324 223.493 220.848 223.682C221.914 224.188 222.93 224.793 223.885 225.487C223.921 225.518 223.959 225.548 223.998 225.576C224.282 225.818 224.573 226.069 224.848 226.32C225.44 226.862 226.006 227.437 226.549 228.02C227.083 228.602 227.594 229.209 228.088 229.824C228.152 229.914 228.217 229.994 228.274 230.075C228.541 230.431 228.792 230.796 229.043 231.16C230.128 232.749 231.128 234.394 232.039 236.089C233.019 237.902 233.902 239.771 234.728 241.673C237.825 249.325 240.111 257.281 241.546 265.41C241.967 267.668 242.331 269.943 242.647 272.217C243.711 280.177 244.085 288.213 243.765 296.237C243.732 297.168 243.684 298.107 243.627 299.038Z" fill="#1E6091"/>
<path d="M344.515 386.842C335.209 386.269 325.897 385.807 316.583 385.393C310.306 385.114 304.023 384.885 297.754 384.461C295.554 384.312 293.353 384.136 291.165 383.858C290.591 383.774 290.015 383.68 289.444 383.563C289.528 383.459 289.611 383.354 289.696 383.251C290.146 382.707 290.609 382.174 291.078 381.646C293.561 378.853 296.191 376.191 298.783 373.5C302.437 369.707 306.062 365.886 309.6 361.984C314.2 356.91 318.652 351.707 322.956 346.377C324.175 344.865 325.381 343.344 326.574 341.813C327.409 340.741 328.239 339.667 329.066 338.589C329.377 338.182 329.688 337.775 329.998 337.367C330.142 337.177 330.287 336.987 330.43 336.797C330.572 336.61 331.19 335.8 330.741 336.378C331.006 336.036 331.271 335.693 331.536 335.349C331.715 335.117 331.894 334.883 332.071 334.649C332.478 334.109 332.878 333.565 333.272 333.015C333.981 332.024 334.667 331.015 335.328 329.991C336.581 328.052 337.733 326.05 338.781 323.993C342.688 316.301 345.245 307.797 345.193 299.112C345.225 291.822 343.211 284.669 339.379 278.466C335.665 272.593 330.291 267.954 323.938 265.137C320.24 263.541 316.331 262.488 312.332 262.011C308.44 261.585 304.507 261.675 300.638 262.279C291.757 263.51 283.24 267.301 275.791 272.197C273.416 273.758 271.147 275.463 268.916 277.222C268.448 277.689 268.077 278.243 267.824 278.853C267.571 279.464 267.441 280.118 267.442 280.778C267.451 282.11 267.98 283.386 268.916 284.335C269.861 285.275 271.14 285.805 272.474 285.808C273.792 285.731 275.046 285.212 276.033 284.335C276.136 284.253 276.24 284.172 276.345 284.09C276.659 283.851 276.974 283.614 277.292 283.38C277.962 282.886 278.639 282.401 279.323 281.927C280.679 280.989 282.064 280.095 283.478 279.245C285.916 277.783 288.445 276.479 291.051 275.342C294.818 273.79 298.755 272.689 302.782 272.064C305.765 271.712 308.779 271.694 311.766 272.01C314.401 272.404 316.981 273.103 319.454 274.093C320.584 274.604 321.683 275.183 322.744 275.824C323.397 276.22 324.034 276.641 324.655 277.086C324.742 277.148 324.936 277.293 325.102 277.417C325.259 277.545 325.415 277.674 325.57 277.805C326.703 278.764 327.763 279.806 328.741 280.922C328.971 281.185 329.197 281.451 329.418 281.722C329.451 281.763 329.484 281.804 329.516 281.845C329.943 282.422 330.349 283.013 330.735 283.618C331.521 284.861 332.218 286.158 332.822 287.498C333.805 289.965 334.499 292.537 334.892 295.163C335.207 298.139 335.19 301.141 334.841 304.114C334.224 308.093 333.135 311.984 331.598 315.706C329.808 319.755 327.623 323.618 325.075 327.239C324.719 327.748 324.357 328.253 323.989 328.754C323.817 328.989 323.643 329.222 323.468 329.455C323.401 329.545 323.174 329.841 323.051 330.003C322.779 330.351 322.511 330.698 322.246 331.049C322.101 331.241 321.956 331.432 321.812 331.624C321.477 332.067 321.141 332.509 320.804 332.95C320.519 333.324 320.233 333.697 319.947 334.069L319.936 334.083C319.824 334.228 319.711 334.373 319.598 334.518C318.993 335.296 318.385 336.07 317.774 336.842C313.392 342.377 308.845 347.775 304.134 353.037C300.47 357.133 296.708 361.139 292.901 365.102C290.166 367.95 287.389 370.762 284.728 373.681C282.717 375.696 280.962 377.95 279.502 380.393C278.085 383.053 277.523 386.254 279.273 388.926C280.942 391.474 283.856 392.645 286.73 393.243C290.474 393.937 294.26 394.371 298.064 394.541C303.531 394.903 309.007 395.117 314.48 395.359C322.238 395.702 329.995 396.064 337.748 396.502C340.004 396.629 342.26 396.762 344.515 396.901C345.848 396.894 347.123 396.361 348.065 395.42C349.007 394.478 349.54 393.203 349.548 391.872C349.518 390.547 348.978 389.285 348.041 388.348C347.103 387.411 345.841 386.872 344.515 386.842Z" fill="#1E6091"/>
<path d="M456.742 324.288C456.735 325.619 456.203 326.894 455.262 327.835C454.32 328.776 453.045 329.307 451.713 329.314C449.454 329.177 447.203 329.047 444.944 328.918C437.194 328.481 429.437 328.116 421.679 327.777C417.549 327.59 413.411 327.42 409.289 327.194C408.747 327.17 408.204 327.137 407.67 327.105C406.86 327.064 406.058 327.008 405.257 326.959C401.455 326.788 397.669 326.353 393.928 325.656C391.053 325.057 388.138 323.892 386.47 321.342C384.721 318.672 385.28 315.467 386.697 312.804C388.157 310.361 389.914 308.107 391.928 306.095C394.584 303.173 397.361 300.365 400.099 297.516C400.503 297.095 400.916 296.666 401.313 296.237C403.459 294.004 405.578 291.748 407.67 289.471C408.212 288.881 408.755 288.298 409.289 287.707C409.97 286.954 410.65 286.202 411.33 285.449C416.043 280.188 420.588 274.79 424.967 269.255C425.582 268.486 426.189 267.709 426.797 266.932C426.91 266.786 427.023 266.64 427.129 266.495L427.145 266.487C427.428 266.114 427.712 265.734 428.003 265.362C428.335 264.925 428.675 264.48 429.007 264.034C429.153 263.848 429.299 263.654 429.445 263.46C429.704 263.112 429.971 262.764 430.246 262.416C430.368 262.254 430.594 261.963 430.667 261.865C430.837 261.639 431.015 261.404 431.185 261.169C431.55 260.668 431.914 260.166 432.271 259.656C434.82 256.035 437.006 252.172 438.797 248.123C440.331 244.399 441.419 240.506 442.036 236.526C442.385 233.553 442.401 230.551 442.085 227.574C441.694 224.949 441.001 222.377 440.02 219.91C439.414 218.571 438.716 217.276 437.931 216.034C437.542 215.427 437.137 214.836 436.708 214.261L436.611 214.14C436.392 213.865 436.166 213.598 435.939 213.339C434.961 212.222 433.899 211.18 432.765 210.223C432.611 210.085 432.457 209.956 432.295 209.834C432.133 209.705 431.939 209.559 431.85 209.502C431.226 209.057 430.594 208.636 429.938 208.24C429.607 208.037 429.266 207.843 428.926 207.657C428.181 207.244 427.42 206.856 426.651 206.508C424.176 205.518 421.595 204.819 418.958 204.428C415.972 204.112 412.96 204.129 409.978 204.476C409.751 204.509 409.516 204.549 409.289 204.598C408.747 204.679 408.204 204.776 407.67 204.897C404.442 205.541 401.286 206.498 398.244 207.754C395.64 208.895 393.111 210.201 390.673 211.663C389.256 212.513 387.871 213.406 386.519 214.342C385.83 214.82 385.158 215.297 384.486 215.791C384.17 216.025 383.855 216.268 383.539 216.503C383.434 216.584 383.328 216.665 383.231 216.746C382.245 217.627 380.989 218.146 379.668 218.219C379.008 218.219 378.354 218.09 377.744 217.837C377.133 217.584 376.579 217.213 376.113 216.746C375.175 215.8 374.646 214.524 374.639 213.193C374.637 212.533 374.766 211.878 375.019 211.269C375.272 210.659 375.644 210.105 376.113 209.64C378.34 207.876 380.616 206.176 382.988 204.614C390.39 199.75 398.852 195.971 407.67 194.716C407.727 194.708 407.775 194.7 407.832 194.692C408.318 194.619 408.804 194.546 409.289 194.489C412.687 194.075 416.122 194.054 419.525 194.425C423.381 194.885 427.153 195.882 430.732 197.387C430.87 197.435 430.999 197.492 431.137 197.549C437.488 200.368 442.859 205.007 446.571 210.878C450.405 217.08 452.419 224.234 452.385 231.524C452.442 240.208 449.883 248.714 445.98 256.411C444.929 258.466 443.775 260.468 442.522 262.408C441.867 263.427 441.178 264.439 440.466 265.426C440.077 265.977 439.672 266.527 439.267 267.061L438.733 267.765C438.514 268.041 438.304 268.316 438.101 268.591L438.093 268.599C438.08 268.61 438.069 268.624 438.061 268.639L438.085 268.615C438.061 268.648 438.004 268.712 437.939 268.793C437.834 268.939 437.68 269.133 437.623 269.214C437.486 269.4 437.34 269.594 437.194 269.781C436.886 270.185 436.571 270.598 436.263 271.003C435.437 272.079 434.606 273.153 433.769 274.224C432.578 275.761 431.372 277.283 430.149 278.788C425.849 284.122 421.398 289.326 416.796 294.4C416.237 295.015 415.679 295.63 415.112 296.237C413.193 298.333 411.252 300.408 409.289 302.461C408.747 303.027 408.213 303.586 407.67 304.152C407.111 304.743 406.544 305.326 405.978 305.917C403.386 308.604 400.755 311.266 398.277 314.059C397.807 314.585 397.345 315.119 396.892 315.669C396.803 315.766 396.722 315.871 396.641 315.977C397.208 316.098 397.791 316.187 398.358 316.276C400.552 316.551 402.747 316.729 404.949 316.875C405.856 316.94 406.763 316.996 407.67 317.045C408.213 317.077 408.747 317.11 409.289 317.134C414.116 317.409 418.95 317.595 423.776 317.806C433.097 318.218 442.409 318.68 451.713 319.254C453.039 319.285 454.301 319.825 455.238 320.763C456.175 321.701 456.714 322.964 456.742 324.288Z" fill="#1E6091"/>
<path d="M103.367 166.455C103.407 166.414 103.448 166.374 103.489 166.325C101.681 170.545 99.1702 174.429 96.0629 177.809L96.0387 177.842C95.7876 178.117 95.5365 178.384 95.2775 178.651C91.5505 182.536 87.0889 185.642 82.1514 187.79C77.2139 189.938 71.8988 191.084 66.5145 191.163L67.7777 259.818L67.7939 260.538L67.802 261.121L65.9476 260.708L64.3281 260.344L63.7369 260.214L63.745 259.818V259.64L64.3281 226.312L64.4982 216.592L64.3281 216.503L58.3439 213.355L59.2751 211.566L64.3281 214.221L64.5386 214.334L64.9435 191.155C64.741 191.147 64.5305 191.147 64.3281 191.131C62.7191 191.077 61.1152 190.92 59.5262 190.661C53.096 189.651 47.0014 187.117 41.7522 183.27C36.503 179.423 32.2518 174.376 29.3542 168.551C29.249 168.34 29.1437 168.122 29.0385 167.911C29.0229 167.872 29.0039 167.834 28.9818 167.798C26.8037 163.175 25.5154 158.184 25.184 153.085C25.1272 152.202 25.1029 151.312 25.1029 150.414C25.0985 143.648 26.7853 136.988 30.0102 131.039C30.2369 130.61 30.4798 130.181 30.7227 129.768C34.1923 123.877 39.0885 118.953 44.9609 115.448C50.8334 111.944 57.4933 109.972 64.3281 109.713C64.8627 109.681 65.4051 109.673 65.9476 109.673C72.0648 109.672 78.1029 111.055 83.6087 113.719C83.7464 113.792 83.8922 113.857 84.0298 113.93C110.396 104.687 120.17 124.257 103.367 166.455Z" fill="#3F3D56"/>
<path d="M65.9475 173.609C65.4941 175.357 64.9543 177.178 64.328 179.072C63.5425 181.484 62.6221 184.011 61.5668 186.655C61.5911 186.623 61.6316 186.59 61.6559 186.558C61.0499 187.977 60.338 189.349 59.5262 190.661C58.4553 192.422 57.2131 194.073 55.8174 195.59L55.7931 195.614C55.5988 195.825 55.3963 196.043 55.1939 196.254C52.2632 199.308 48.7547 201.75 44.8723 203.438C40.9898 205.126 36.8105 206.026 32.577 206.087L33.5649 259.818L33.5811 260.668L33.5892 261.121L30.3906 260.409L30.3987 259.955V259.818L30.9899 226.093L26.1393 223.544L26.8843 222.144L31.0223 224.321L31.338 206.087C26.0762 205.971 20.9241 204.561 16.3369 201.982C11.7497 199.403 7.86867 195.734 5.03671 191.301C4.42091 190.333 3.85601 189.333 3.3443 188.306C3.25523 188.136 3.17425 187.966 3.09332 187.804C3.08482 187.773 3.07112 187.743 3.05282 187.715C1.33637 184.08 0.322588 180.154 0.0648207 176.142C0.016186 175.446 -2.40544e-05 174.742 -2.40544e-05 174.038C-0.00724453 168.716 1.31783 163.477 3.85448 158.798C4.04073 158.458 4.22698 158.127 4.42128 157.795C8.50799 150.861 15.0529 145.715 22.7581 143.378C30.4632 141.041 38.7658 141.683 46.0192 145.178C46.1244 145.234 46.2378 145.283 46.3511 145.339C54.5461 142.466 60.7083 143.138 64.328 147.039C64.9586 147.713 65.5026 148.464 65.9475 149.273C68.7413 154.274 68.9033 162.489 65.9475 173.609Z" fill="#3F3D56"/>
</g>
<defs>
<clipPath id="clip0_1_62">
<rect width="503.759" height="500" fill="white"/>
</clipPath>
</defs>
</svg>
